@startuml
top to bottom direction
skinparam linetype ortho
skinparam packageStyle rectangle
skinparam wrapWidth 180
skinparam nodesep 8
skinparam ranksep 25
hide empty members

package "Krankenhaus" as PKH {

class Organization_Krankenhaus {
}

class HealthcareService_Krankenhaus {
}

'class Location_Krankenhaus {}

'class Endpoint_Krankenhaus {}

Organization_Krankenhaus <-[thickness=3]-- HealthcareService_Krankenhaus : providedBy
'HealthcareService_Krankenhaus ---> Location_Krankenhaus : location
'HealthcareService_Krankenhaus ---> Endpoint_Krankenhaus : endpoint
}

package "Standort" as PST {

class HealthcareService_Standort {
}

Organization_Krankenhaus <-[thickness=3]------- HealthcareService_Standort : providedBy
HealthcareService_Standort ...up....> HealthcareService_Krankenhaus : offeredIn
}

package "Zentren" as PZE {

class HealthcareService_Zentren {
}

Organization_Krankenhaus <-[thickness=3]- HealthcareService_Zentren : providedBy
HealthcareService_Zentren ...up.> HealthcareService_Standort : offeredIn
}

package "Einrichtung" as PEI {

class HealthcareService_Einrichtung {
}

Organization_Krankenhaus <-[thickness=3]-- HealthcareService_Einrichtung : providedBy
HealthcareService_Einrichtung ...up.> HealthcareService_Standort : offeredIn
}

package "Fachabteilung" as PFA {

class HealthcareService_Fachabteilung {
}

Organization_Krankenhaus <-right[thickness=3]- HealthcareService_Fachabteilung : providedBy
HealthcareService_Fachabteilung ...up.> HealthcareService_Einrichtung : offeredIn
}


PKH -[hidden]right-> PST
PST -[hidden]right-> PZE
PEI -[hidden]left-> PZE
PZE -[hidden]left-> PKH

@enduml
