@startuml

package "Krankenhaus" {

class Organization_Krankenhaus {
#<color:#0000FF>identifier: telematikID, IKNR</color> 
#<color:#0000FF>name : Name der Organization</color>
-alias : 
#<color:#0000FF>type : 1.2.276.0.76.4.53 Krankenhaus</color>
#<color:#0000FF>active : true</color>
}

class HealthcareService_Krankenhaus {
#<color:#0000FF>type : GESU - Öffentliches Gesundheitswesen</color>
#<color:#0000FF>Origin: ldap</color>
-speciality : -
-name : -
#availableTime: Öffnungszeiten
}

Organization_Krankenhaus <-- HealthcareService_Krankenhaus : providedBy
HealthcareService_Krankenhaus --> Location_Krankenhaus : location
HealthcareService_Krankenhaus --> Endpoint_Krankenhaus : endpoint


class Location_Krankenhaus {
#name : -
#<color:#0000FF>address : Adresse</color>
-position : VZD GeoKoordinaten
}

class Endpoint_Krankenhaus {
#<color:#0000FF>name: Name</color>
#<color:#0000FF>endpointVisibility : -</color>
#<color:#0000FF>status : active</color>
#<color:#0000FF>connectionType : EndpointConnectionType</color>
#<color:#0000FF>payloadType : EndpointPlayloadType</color>
#<color:#0000FF>address : KIM/TIM Adresse</color>
}

}

note right of Krankenhaus 
   Daten werden
   nur aus dem VZD
   übernommen.
   Erkennung Zusammengehörigkeit
   über IK.
end note   

package "Standort" {

class Organization_Standort {
+<color:#2bcc0e>identifier.standortId: 123456</color>
+<color:#2bcc0e>orgType: "Standort"</color>
+<color:#2bcc0e>name : Name der Organization - Standort 123</color>
-alias : -
-type : -
+<color:#2bcc0e>active : "Aktiv"</color>
+<color:#2bcc0e>GültigVon : 2018-01-01</color>
+<color:#2bcc0e>GültigBis : -</color>
+<color:#2bcc0e>LetzteÄnderung : 2025-12-19</color>
}

Organization_Krankenhaus <-- Organization_Standort : "partOf"
HealthcareService_Krankenhaus -[hidden]right-> Organization_Standort

class HealthcareService_Standort {
-type : -
-speciality : -
-name : -
-telecom : -
-availableTime: -
}

HealthcareService_Standort --> Location_Standort : location
Organization_Standort <-- HealthcareService_Standort : providedBy

class Location_Standort {
-name : -
+<color:#2bcc0e>address : Adresse</color>
+<color:#2bcc0e>position : GeoKoordinaten</color>
}

package "Zentren" {

class Organization_Zentren {
+identifier : erId aus Standortdaten
-name : -
-alias : -
+type : Fachabteilungsschlüssel aus Standortdaten
-active : -
}

Organization_Standort <-down- Organization_Zentren : "partOf"

class HealthcareService_Zentren {
-type : -
-speciality : -
-name : -
-telecom : -
-availableTime: -
}

Organization_Zentren <-- HealthcareService_Zentren : providedBy

}

}

package "Einrichtung" {

class Organization_Einrichtung {
+<color:#2bcc0e>identifier:BSNR : 999999999</color>
+<color:#2bcc0e>orgType: "Einrichtung"</color>
+<color:#2bcc0e>name : Name der Organization - Name der Einrichtung</color>
-alias : -
+<color:#2bcc0e>type : Einrichtungstyp</color>
+<color:#2bcc0e>active : "Aktiv"</color>
}

Organization_Standort <-- Organization_Einrichtung : "partOf"

class HealthcareService_Einrichtung {
-type : -
-speciality : -
-name : -
-telecom : -
-availableTime: -
}

HealthcareService_Einrichtung --> Location_Einrichtung : location
Organization_Einrichtung <-- HealthcareService_Einrichtung : providedBy

class Location_Einrichtung {
-name : -
+<color:#2bcc0e>address : Adresse</color>
+<color:#2bcc0e>position : GeoKoordinaten</color>
}

package "Fachabteilung" {

class Organization_Fachabteilung {
+<color:#2bcc0e>identifier: erId aus Standortdaten</color>
+<color:#2bcc0e>orgType: "Fachabzeilung"</color>
+<color:#2bcc0e>name : Name der Organization - Name der Einrichtung - Name der Fachabteilung</color>
-alias : -
+<color:#2bcc0e>type : Fachabteilungsschlüssel</color>
+<color:#2bcc0e>active : "Aktiv"</color>
}

Organization_Einrichtung <-- Organization_Fachabteilung : "partOf"

class HealthcareService_Fachabteilung {
-type : -
-speciality : -
-name : -
-telecom : -
-availableTime: -
}

Organization_Fachabteilung <-- HealthcareService_Fachabteilung : providedBy

}

}

@enduml
