@startuml

package "Krankenhaus" {
  
class Organization_Krankenhaus {
#<color:#0000FF>identifier.telematikID xxx</color> 
#<color:#0000FF>identifier.IKNR xxx</color>
#<color:#0000FF>name : Krankenhaus xxx </color>
-alias : 
#<color:#0000FF>type : 1.2.276.0.76.4.53 Krankenhaus</color>
#<color:#0000FF>active : true</color>
}

class HealthcareService_Krankenhaus {
#<color:#0000FF>type : GESU - Öffentliches Gesundheitswesen</color>
#<color:#0000FF>Origin: ldap</color>
-speciality : -
-name : -
#availableTime: Öffnungszeiten
}

Organization_Krankenhaus <-- HealthcareService_Krankenhaus : providedBy
HealthcareService_Krankenhaus --> Location_Krankenhaus : location
HealthcareService_Krankenhaus --> Endpoint_Krankenhaus : endpoint


class Location_Krankenhaus {
#name : -
#<color:#0000FF>address : Promenadenstraße 3-5, 12207, Berlin</color>
-position : VZD GeoKoordinaten
}

class Endpoint_Krankenhaus {
#<color:#0000FF>name: Name</color>
#<color:#0000FF>endpointVisibility : -</color>
#<color:#0000FF>status : active</color>
#<color:#0000FF>connectionType : EndpointConnectionType</color>
#<color:#0000FF>payloadType : EndpointPlayloadType</color>
#<color:#0000FF>address : KIM/TIM Adresse</color>
}

}

note right of Krankenhaus 
   Daten werden
   nur aus dem VZD
   übernommen und mit Standorten 
   aus dem Standortverzeichnis ergänzt.
   Erkennung Zusammengehörigkeit
   über IK/HauptIK.
end note   

note "Legende\n<color:#0000FF>Blaue Attribute/Werte werden aus dem VZD übernommen</color>\n<color:#2bcc0e>Grüne Attribute werden aus dem Standortverzeichnis übernommen</color>" as N1

package "Standort" {

class Organization_Standort {
+<color:#2bcc0e>identifier.standortId: xxx</color>
+<color:#2bcc0e>orgType: "Standort"</color>
+<color:#2bcc0e>name : Krankenhaus xxx</color>
-alias : -
-type : -
+<color:#2bcc0e>active : "Aktiv"</color>
+<color:#2bcc0e>GültigVon : xx.xx.20xx</color>
+<color:#2bcc0e>GültigBis : -</color>
+<color:#2bcc0e>LetzteÄnderung : xx.xx.20xx</color>
}


Organization_Krankenhaus <-- Organization_Standort : "partOf"
HealthcareService_Krankenhaus -[hidden]right-> Organization_Standort

class HealthcareService_Standort {
-type : -
-speciality : -
-name : -
-telecom : -
-availableTime: -
}

HealthcareService_Standort --> Location_Standort : location
Organization_Standort <-- HealthcareService_Standort : providedBy



class Location_Standort {
-name : -
+<color:#2bcc0e>address : Straße xx, xxxxx Stadt</color>
+<color:#2bcc0e>position : 13.325926780717;52.43255291529 </color>
}

package "Zentren" {

Organization_Standort <-down- HealthcareService_Zentren : "providedBy"

class HealthcareService_Zentren {
+type : "Zentrum"
-speciality : -
-name : -
-telecom : -
-availableTime: -
}

HealthcareService_Zentren --> Location_Zentren : location


class Location_Zentren {
-name : -
+<color:#2bcc0e>address : Straße xx, xxxxx Stadt</color>
+<color:#2bcc0e>position : 13.325926780717;52.43255291529 </color>
}

}

}

package "Einrichtung" {

class Organization_Einrichtung {
+<color:#2bcc0e>identifier:BSNR : 999999999</color>
+<color:#2bcc0e>orgType: "Einrichtung"</color>
+<color:#2bcc0e>name : Krankenhaus xxx - Einrichtungsname</color>
-alias : -
+<color:#2bcc0e>type : Einrichtungstyp</color>
+<color:#2bcc0e>active : "Aktiv"</color>
}

Organization_Standort <-- Organization_Einrichtung : "partOf"

class HealthcareService_Einrichtung {
-type : -
-speciality : -
-name : -
-telecom : -
-availableTime: -
}

HealthcareService_Einrichtung --> Location_Einrichtung : location
Organization_Einrichtung <-- HealthcareService_Einrichtung : providedBy



class Location_Einrichtung {
-name : -
+<color:#2bcc0e>address : Straße xx, xxxxx Stadt</color>
+<color:#2bcc0e>position : 13.325926780717;52.43255291529 </color>
}

package "Fachabteilung" {


Organization_Einrichtung <-down- HealthcareService_Fachabteilung : "providedBy"

class HealthcareService_Fachabteilung {
+type : "Fachabteilung"
-speciality : -
-name : -
-telecom : -
-availableTime: -
}

HealthcareService_Fachabteilung --> Location_Fachabteilung : location

class Location_Fachabteilung {
-name : -
-address : -
-position : -
}

}

}



@enduml
